<svg width="69" height="69" viewBox="0 0 69 69" fill="none" xmlns="http://www.w3.org/2000/svg">
<path d="M35.743 16.0741H33.374C27.7428 16.0741 23.1351 20.6818 23.1351 26.313V42.5404C23.1351 48.1716 27.7428 52.7793 33.374 52.7793H35.743C41.3741 52.7793 45.9818 48.1716 45.9818 42.5404V26.313C45.9818 20.6818 41.3741 16.0741 35.743 16.0741Z" fill="#D0CFCE"/>
<path d="M34.5585 21.1907C34.0318 21.1922 33.5272 21.4021 33.1548 21.7745C32.7823 22.1469 32.5724 22.6516 32.5709 23.1783V28.7692C32.5727 29.2957 32.7827 29.8001 33.1551 30.1723C33.5275 30.5445 34.032 30.7543 34.5585 30.7558C35.085 30.7543 35.5895 30.5445 35.9619 30.1723C36.3343 29.8001 36.5443 29.2957 36.5461 28.7692V23.1783C36.5446 22.6516 36.3347 22.1469 35.9623 21.7745C35.5898 21.4021 35.0852 21.1922 34.5585 21.1907Z" fill="#3F3F3F"/>
<path d="M33.672 17.4196C36.5729 18.6645 39.33 20.4508 39.6511 24.9646C40.0229 30.1923 38.089 39.9807 37.4661 44.9526C37.0319 48.4284 35.3127 50.0384 33.029 51.8621C31.879 52.7831 38.0765 52.671 40.6286 51.1788C42.8193 49.8985 44.9411 47.701 44.9669 48.3958L45.2765 23.666C45.2765 23.666 44.3785 17.0181 37.0674 17.0152C37.0674 17.0152 29.7342 16.6386 33.672 17.4196Z" fill="#9B9B9A"/>
<path d="M37.212 52.2301H31.9057C27.1428 52.2301 23.2472 48.3345 23.2472 43.5725V25.2808C23.2472 20.5189 27.1438 16.6232 31.9057 16.6232H37.2111C41.974 16.6232 45.8696 20.5189 45.8696 25.2808V43.5725C45.8696 48.3345 41.973 52.2301 37.2111 52.2301H37.212Z" stroke="#3C3C3C" stroke-width="2" stroke-miterlimit="10" stroke-linecap="round" stroke-linejoin="round"/>
<path d="M34.6389 30.8152H34.4779C33.9623 30.8139 33.4682 30.6086 33.1037 30.244C32.7391 29.8794 32.5337 29.3854 32.5325 28.8698V23.0767C32.5325 22.0072 33.4084 21.1322 34.4779 21.1322H34.6389C35.7084 21.1322 36.5843 22.0072 36.5843 23.0776V28.8717C36.5843 29.9412 35.7084 30.8171 34.6389 30.8171V30.8152Z" stroke="#3C3C3C" stroke-width="2" stroke-miterlimit="10" stroke-linecap="round" stroke-linejoin="round"/>
<path d="M39.6088 57.5153L34.6101 62.514" stroke="#3C3C3C" stroke-width="2" stroke-miterlimit="10" stroke-linecap="round" stroke-linejoin="round"/>
<path d="M29.5713 57.5153L34.57 62.514" stroke="#3C3C3C" stroke-width="2" stroke-miterlimit="10" stroke-linecap="round" stroke-linejoin="round"/>
<path d="M29.5713 11.3965L34.57 6.39783" stroke="#3C3C3C" stroke-width="2" stroke-miterlimit="10" stroke-linecap="round" stroke-linejoin="round"/>
<path d="M39.6088 11.3965L34.6101 6.39783" stroke="#3C3C3C" stroke-width="2" stroke-miterlimit="10" stroke-linecap="round" stroke-linejoin="round"/>
</svg>
