<?xml version="1.0" standalone="no"?>
<!DOCTYPE svg PUBLIC "-//W3C//DTD SVG 20010904//EN"
 "http://www.w3.org/TR/2001/REC-SVG-20010904/DTD/svg10.dtd">
<svg version="1.0" xmlns="http://www.w3.org/2000/svg"
 width="480.000000pt" height="480.000000pt" viewBox="0 0 480.000000 480.000000"
 preserveAspectRatio="xMidYMid meet">
<metadata>
Created by potrace 1.11, written by Peter Selinger 2001-2013
</metadata>
<g transform="translate(0.000000,480.000000) scale(0.100000,-0.100000)"
fill="#000000" stroke="none">
<path d="M2805 4354 c-90 -10 -272 -47 -390 -79 -702 -193 -1389 -612 -1743
-1066 -175 -223 -232 -376 -232 -625 0 -319 136 -606 366 -770 84 -60 306
-166 438 -208 292 -95 601 -115 862 -57 340 76 606 271 747 546 263 516 133
903 -353 1049 -170 51 -254 60 -535 60 -212 0 -288 -4 -415 -22 -226 -32 -400
-67 -453 -92 -64 -30 -124 -91 -155 -158 -25 -53 -27 -67 -27 -192 0 -120 3
-145 28 -223 15 -48 43 -121 61 -161 98 -214 297 -435 452 -501 95 -41 261
-96 380 -127 118 -30 142 -33 274 -33 164 1 193 9 289 85 167 132 269 426 239
683 -17 140 -100 261 -216 315 -51 23 -69 26 -172 27 -134 0 -209 -19 -350
-89 -96 -48 -230 -133 -230 -145 0 -25 28 -28 100 -14 49 9 114 13 190 10 100
-3 123 -7 172 -30 63 -31 101 -74 118 -135 25 -96 -49 -215 -175 -280 -74 -37
-148 -53 -273 -59 -67 -3 -125 -10 -128 -15 -3 -5 0 -16 8 -25 11 -13 30 -15
128 -10 234 12 399 98 467 245 68 145 -9 289 -181 344 -17 6 -85 13 -151 16
l-120 7 95 47 c295 145 543 110 633 -90 71 -158 50 -400 -51 -597 -44 -84
-138 -182 -206 -214 -139 -64 -321 -46 -648 64 -180 61 -230 86 -314 158 -192
163 -339 428 -374 674 -27 184 38 332 172 387 40 17 252 57 438 83 179 25 627
25 758 0 213 -41 366 -110 468 -212 166 -165 187 -395 65 -700 -57 -141 -117
-231 -226 -340 -191 -190 -408 -285 -721 -316 -312 -30 -702 61 -1008 237
-240 139 -389 387 -415 693 -23 259 28 426 199 652 386 514 1188 976 1964
1131 152 30 478 33 571 5 225 -68 366 -156 555 -346 290 -291 463 -659 520
-1106 16 -127 14 -368 -5 -463 -78 -402 -377 -819 -832 -1161 -180 -135 -305
-213 -520 -323 -342 -176 -650 -287 -1031 -373 -147 -33 -176 -45 -154 -67 14
-14 74 -4 302 54 1088 273 1993 958 2238 1693 50 152 65 271 59 474 -9 309
-69 555 -202 826 -187 382 -470 665 -798 796 -119 48 -186 60 -352 64 -88 1
-178 1 -200 -1z"/>
</g>
</svg>
